<svg width="57" height="32" viewBox="0 0 57 32" fill="none" xmlns="http://www.w3.org/2000/svg">
<path d="M29.2387 11.1854H23.1153V7.23624H34.4079V18.9242C34.4079 18.9756 34.4101 19.0264 34.4139 19.0772C34.5492 20.8488 33.7689 22.3493 33.374 22.9524C32.3264 24.5512 29.6673 25.3332 26.7094 25.2089C25.8849 23.3936 25.0051 21.4541 24.1806 19.6394C24.9825 20.8278 26.1671 21.5281 27.2506 21.3729C27.4003 21.3514 27.952 21.236 28.4705 20.8207C28.9333 20.4501 29.1995 19.8896 29.2017 19.2992C29.2139 16.5948 29.226 13.8898 29.2382 11.1854H29.2387Z" fill="#9B30D9"/>
<path d="M16.1325 12.5252L10.9634 25.2095H5.75452L13.5877 7.31631H18.6376L26.7094 25.2095H21.1824L16.1325 12.5252Z" fill="#9B30D9"/>
<path d="M48.3987 9.64408C48.4589 9.69489 48.5191 9.74514 48.581 9.79705C49.9174 10.9524 50.8353 12.5915 51.2003 14.3134C51.2121 14.3631 51.2239 14.4134 51.2357 14.4642C51.3605 15.0518 51.3632 15.6372 51.3632 16.2353C51.3632 16.2899 51.3632 16.3446 51.3632 16.4004C51.361 17.68 51.1363 18.8176 50.6 19.9834C50.5685 20.0536 50.5371 20.1243 50.5045 20.1966C50.2764 20.6793 49.9931 21.0973 49.6662 21.5176C49.6242 21.5734 49.5822 21.6286 49.5391 21.686C48.1961 23.4273 46.2085 24.5567 44.0624 24.9869C44.0028 24.999 43.9427 25.0112 43.8824 25.0233C43.2732 25.1321 42.6724 25.1432 42.0561 25.1415C41.8837 25.1415 41.7114 25.1432 41.5391 25.1448C40.0387 25.1504 38.684 24.8383 37.3293 24.195C37.2597 24.1618 37.1901 24.1292 37.1183 24.095C36.6671 23.8741 36.2596 23.6201 35.857 23.3191C35.8012 23.2771 35.7454 23.2357 35.688 23.1926C34.8756 22.5752 34.2029 21.8423 33.6557 20.9841C33.6297 20.9438 33.6032 20.9029 33.5767 20.8615C32.3744 18.9678 32.0425 16.4319 32.5191 14.2477C33.1001 11.9045 34.5106 9.95058 36.5859 8.69861C40.1773 6.59783 45.2398 6.86236 48.3993 9.64297L48.3987 9.64408ZM38.5255 12.8461C38.489 12.8853 38.4526 12.9245 38.415 12.9654C37.4977 14.0754 37.2365 15.4897 37.3431 16.8891C37.4386 17.7595 37.6993 18.5255 38.1919 19.2506C38.2221 19.297 38.2525 19.3439 38.283 19.3914C38.8756 20.2529 39.894 20.8013 40.9024 21.0079C42.1505 21.2199 43.4019 21.0272 44.4628 20.3181C44.7014 20.132 44.9173 19.9326 45.1299 19.7178C45.1713 19.6786 45.2133 19.6388 45.2558 19.5985C46.1577 18.6762 46.4145 17.3392 46.4139 16.1C46.4001 15.007 46.0831 13.971 45.3967 13.1134C45.3563 13.062 45.3155 13.0106 45.2741 12.9576C44.6682 12.2314 43.9497 11.8515 43.0617 11.5792C43.0192 11.5659 42.9767 11.5532 42.933 11.5394C41.395 11.1092 39.598 11.6896 38.5255 12.8466V12.8461Z" fill="#9B30D9"/>
</svg>
