<svg width="100" height="100" viewBox="0 0 100 100" fill="none" xmlns="http://www.w3.org/2000/svg">
<circle cx="50" cy="50" r="43" fill="#9B30D9" stroke="#751FA8" stroke-width="14"/>
<path d="M60.6782 62.8509C56.8998 53.3601 43.4855 53.3059 39.6304 62.7657L38.259 66.1309C37.3055 68.4705 35.0306 70 32.5042 70V70C28.0221 70 25.014 65.3994 26.8115 61.2936L40.8996 29.1125C42.5253 25.3992 46.1946 23 50.2482 23V23C54.2606 23 57.9007 25.3512 59.5506 29.0087L73.891 60.7978C75.8379 65.1135 72.6815 70 67.947 70V70C65.2767 70 62.8763 68.372 61.8886 65.8911L60.6782 62.8509Z" fill="white"/>
</svg>
